<svg xmlns="http://www.w3.org/2000/svg" width="23.44" height="18.752"><path d="M9.376 12.306c0-.593.049-.32-3.115-6.648a1.759 1.759 0 00-3.145 0C-.075 12.04 0 11.732 0 12.306c0 1.618 2.1 2.93 4.688 2.93s4.688-1.312 4.688-2.93zm-4.688-5.86l2.637 5.274H2.051zm18.751 5.86c0-.593.049-.32-3.115-6.648a1.759 1.759 0 00-3.145 0c-3.191 6.382-3.115 6.074-3.115 6.648 0 1.618 2.1 2.93 4.688 2.93s4.688-1.312 4.688-2.93zm-7.324-.586l2.637-5.274 2.637 5.274zm3.223 4.688h-6.446V5.613a2.932 2.932 0 001.7-2.1h4.747a.586.586 0 00.586-.586V1.758a.586.586 0 00-.586-.586h-5.288a2.9 2.9 0 00-4.662 0H4.1a.586.586 0 00-.586.586V2.93a.586.586 0 00.586.586h4.749a2.932 2.932 0 001.7 2.1v10.8H4.1a.586.586 0 00-.586.586v1.172a.586.586 0 00.586.586h15.238a.586.586 0 00.586-.586v-1.18a.586.586 0 00-.586-.586z" fill="#9e9e9e"/></svg>