<svg xmlns="http://www.w3.org/2000/svg" width="16.424" height="18.77"><path d="M16.424 13.2V.88a.878.878 0 00-.88-.88H3.519A3.52 3.52 0 000 3.519v11.732a3.52 3.52 0 003.519 3.519h12.025a.878.878 0 00.88-.88v-.59a.887.887 0 00-.326-.686 8.175 8.175 0 010-2.739.874.874 0 00.326-.682zM4.693 4.913a.221.221 0 01.22-.22h7.772a.221.221 0 01.22.22v.733a.221.221 0 01-.22.22H4.913a.221.221 0 01-.22-.22zm0 2.346a.221.221 0 01.22-.22h7.772a.221.221 0 01.22.22v.733a.221.221 0 01-.22.22H4.913a.221.221 0 01-.22-.22zm9.29 9.165H3.519a1.173 1.173 0 110-2.346h10.463a13.2 13.2 0 000 2.346z" fill="#9e9e9e"/></svg>