<svg xmlns="http://www.w3.org/2000/svg" width="16.219" height="18.536"><path d="M15.785 17.378h-.724V.869A.869.869 0 0014.192 0H2.027a.869.869 0 00-.869.869v16.509H.434a.434.434 0 00-.434.434v.724h16.219v-.724a.434.434 0 00-.434-.434zM4.634 2.752a.434.434 0 01.434-.434h1.449a.434.434 0 01.434.434V4.2a.434.434 0 01-.434.434H5.069a.434.434 0 01-.435-.434zm0 3.476a.434.434 0 01.434-.434h1.449a.434.434 0 01.434.434v1.447a.434.434 0 01-.434.434H5.069a.434.434 0 01-.434-.434zm1.883 5.358H5.069a.434.434 0 01-.434-.434V9.7a.434.434 0 01.434-.434h1.448a.434.434 0 01.434.434v1.448a.434.434 0 01-.434.437zm2.752 5.793H6.951v-3.042a.434.434 0 01.434-.434h1.449a.434.434 0 01.434.434zm2.317-6.227a.434.434 0 01-.434.434H9.7a.434.434 0 01-.434-.434V9.7a.434.434 0 01.434-.432h1.448a.434.434 0 01.434.434zm0-3.476a.434.434 0 01-.434.434H9.7a.434.434 0 01-.434-.434V6.227a.434.434 0 01.434-.434h1.448a.434.434 0 01.434.434zm0-3.476a.434.434 0 01-.434.434H9.7a.434.434 0 01-.432-.434V2.752a.434.434 0 01.432-.435h1.448a.434.434 0 01.434.434z" fill="#9e9e9e"/></svg>