<svg xmlns="http://www.w3.org/2000/svg" width="22.177" height="16.633"><path d="M21.484 13.861H2.772V.693A.693.693 0 002.079 0H.693A.693.693 0 000 .693v14.554a1.386 1.386 0 001.386 1.386h20.1a.693.693 0 00.693-.693v-1.386a.693.693 0 00-.695-.693zM20.1 1.386h-5.116a1.04 1.04 0 00-.735 1.775l1.4 1.4-3.178 3.178L9.3 4.564a1.386 1.386 0 00-1.96 0L4.361 7.54a.693.693 0 000 .98l.98.98a.693.693 0 00.98 0l2-2 3.178 3.178a1.386 1.386 0 001.96 0l4.158-4.158 1.4 1.4a1.04 1.04 0 001.775-.735V2.079a.692.692 0 00-.692-.693z" fill="#9e9e9e"/></svg>