<svg xmlns="http://www.w3.org/2000/svg" width="16.328" height="16.328"><path d="M14.579 0H1.749A1.749 1.749 0 000 1.749v12.83a1.749 1.749 0 001.749 1.749h12.83a1.749 1.749 0 001.749-1.749V1.749A1.749 1.749 0 0014.579 0zM3.426 14a.547.547 0 01-.533-.424L2.347 11.2a.547.547 0 01.317-.625l2.551-1.093a.547.547 0 01.638.156l1.13 1.381a8.45 8.45 0 004.038-4.038L9.64 5.854a.547.547 0 01-.156-.638l1.093-2.551a.547.547 0 01.625-.317l2.369.547a.547.547 0 01.424.533A10.569 10.569 0 013.426 14z" fill="#9e9e9e"/></svg>